# xmcd CD database file
#
# Track frame offsets:
#	150
#	28085
#	48667
#	86231
#	91333
#	95618
#	133641
#	151932
#	181482
#
# Disc length: 2654 seconds
#
# Revision: 0
# Processed by: cddbd v1.5.2PL0 Copyright (c) Steve Scherf et al.
# Submitted via: CDex 1.70beta3
#
DISCID=740a5c09
DTITLE=Ivo Perelman, Joe Morris - Blue
DYEAR=2016
DGENRE=Jazz
TTITLE0=Blue
TTITLE1=Turtle Dance
TTITLE2=Almost Blue
TTITLE3=Bluebird
TTITLE4=Instant
TTITLE5=Wee Hours
TTITLE6=Blue Lester
TTITLE7=Tight Rope
TTITLE8=Crossword
EXTD=YEAR: 2016
EXTT0=
EXTT1=
EXTT2=
EXTT3=
EXTT4=
EXTT5=
EXTT6=
EXTT7=
EXTT8=
PLAYORDER=
